<svg xmlns="http://www.w3.org/2000/svg" viewBox="0 0 216 216"><g fill="#762075"><path d="M27.5 28c-2 2.2-2 3.6-2 63.2v61l2.6 2.2c2.3 2 4.2 2.4 13.5 2.9 22.5 1.2 43.8 9.3 56.7 21.5l3.7 3.6v-123l-2.8-4.5C88.8 38.7 66.1 27.5 41 26.3c-11-.5-11.6-.5-13.5 1.7m137.2-1c-20.2 3.4-39.4 14.6-47.9 27.9l-2.8 4.5v122.8l3.8-3.4c14-12.6 33.9-20.2 56.6-21.5 9.3-.5 11.2-.9 13.5-2.9l2.6-2.2v-61c0-71.9 1.3-65.3-12.4-65.1-4.7.1-10.8.5-13.4.9"/><path d="M4.4 53.2c-1.2.5-2.7 2.1-3.3 3.4C.3 58.4 0 77.9 0 121.9c0 62 0 62.9 2.1 65.5 2.5 3.2 4.4 3.3 19.7.4 9.8-1.9 15.3-2.2 33.7-2.3 14.9 0 23.9.4 27.8 1.3 3.2.8 6.1 1.2 6.3.9.3-.3-2.9-2.7-7.1-5.5-12-7.9-30.8-13.2-47.3-13.2-10-.1-18.8-6.2-21.1-14.7-.7-2.4-1.1-21.8-1.1-53.1V52l-3.2.1c-1.8 0-4.3.5-5.4 1.1m198.6 48c0 31.3-.4 50.7-1.1 53.1-2.3 8.5-11.1 14.6-21.1 14.7-16.5 0-35.3 5.3-47.3 13.2-4.2 2.8-7.4 5.2-7.1 5.5.2.3 3.1-.1 6.3-.9 3.9-.9 12.9-1.3 27.8-1.3 18.4.1 23.9.4 33.7 2.3 15.3 2.9 17.2 2.8 19.7-.4 2.1-2.6 2.1-3.5 2.1-65.5 0-43.9-.3-63.5-1.1-65.2-1.3-2.9-4.8-4.7-8.9-4.7h-3z"/></g></svg>
